<?xml version="1.0" encoding="UTF-8"?>
<svg version="1.1" xmlns="http://www.w3.org/2000/svg" width="150" height="150">
<path d="M0 0 C0.99272919 -0.00563965 1.98545837 -0.0112793 3.00827026 -0.01708984 C4.10132477 -0.01304138 5.19437927 -0.00899292 6.32055664 -0.00482178 C7.46855743 -0.00832642 8.61655823 -0.01183105 9.79934692 -0.01544189 C13.60986301 -0.02427437 17.42019478 -0.01840462 21.23071289 -0.01165771 C23.86865271 -0.01300393 26.50659228 -0.01494409 29.14453125 -0.01745605 C34.67946383 -0.02109728 40.21434309 -0.01629254 45.74926758 -0.0067749 C52.15336474 0.00410998 58.55733457 0.00058451 64.96142864 -0.01042771 C71.1155892 -0.02058763 77.26969319 -0.01952452 83.42385864 -0.01366425 C86.04582741 -0.01232618 88.66779941 -0.0139809 91.2897644 -0.01862335 C94.94855467 -0.02367926 98.6070974 -0.01599135 102.26586914 -0.00482178 C103.35892365 -0.00887024 104.45197815 -0.0129187 105.57815552 -0.01708984 C107.0672493 -0.00863037 107.0672493 -0.00863037 108.58642578 0 C109.45215714 0.00075405 110.31788849 0.0015081 111.20985413 0.002285 C113.29321289 0.25396729 113.29321289 0.25396729 115.29321289 2.25396729 C115.50225583 4.96779219 115.58685956 7.5804131 115.58374023 10.29620361 C115.59045746 11.12727127 115.59717468 11.95833893 115.60409546 12.81459045 C115.62314827 15.57178673 115.62700357 18.32874045 115.62915039 21.08599854 C115.63557425 22.99930421 115.6423023 24.91260889 115.64932251 26.82591248 C115.6613142 30.84174883 115.66500149 34.85749905 115.66381836 38.87335205 C115.66361529 44.01843337 115.6908966 49.16296158 115.72536278 54.30791187 C115.74760777 58.26190219 115.75165661 62.21575903 115.75059891 66.16980553 C115.75295929 68.06642243 115.76180736 69.96304277 115.77726364 71.85959816 C115.79687123 74.51464045 115.79110601 77.16848558 115.77905273 79.82354736 C115.79029175 80.60659241 115.80153076 81.38963745 115.81311035 82.19641113 C115.77008001 85.92855675 115.4259075 88.04751862 113.3878479 91.21836853 C110.44543457 94.07785139 108.89534384 94.37992623 104.9103241 94.40113831 C103.98924362 94.40829361 103.06816315 94.41544891 102.11917114 94.42282104 C101.10563568 94.42550995 100.09210022 94.42819885 99.04785156 94.43096924 C97.98269821 94.43754044 96.91754486 94.44411163 95.82011414 94.45088196 C92.28380265 94.47064534 88.74753368 94.48228383 85.21118164 94.49224854 C83.40292121 94.49836183 83.40292121 94.49836183 81.55813026 94.50459862 C75.1787292 94.52547148 68.79934973 94.53976843 62.41992188 94.5491333 C55.82209689 94.56020535 49.22460846 94.59461138 42.62690258 94.634305 C37.56117616 94.66041655 32.49553062 94.66882026 27.42974281 94.67241478 C24.99723345 94.67729419 22.56472802 94.68894642 20.13228416 94.70745277 C16.73016862 94.73172919 13.32893296 94.73089992 9.92675781 94.72393799 C8.91929504 94.73674805 7.91183228 94.74955811 6.87384033 94.76275635 C2.48502203 94.72997115 -0.00359055 94.68565877 -3.80888367 92.34959412 C-7.2809037 88.51585939 -6.85487109 85.10435925 -6.85205078 80.16412354 C-6.85540939 79.328237 -6.85876801 78.49235046 -6.86222839 77.63113403 C-6.87175149 74.85956347 -6.87368207 72.08805321 -6.87475586 69.31646729 C-6.87796707 67.39597549 -6.88133104 65.47548395 -6.88484192 63.55499268 C-6.89083629 59.52658521 -6.89268146 55.49819921 -6.89208984 51.4697876 C-6.89198811 46.2976781 -6.90565086 41.12570554 -6.92286205 35.95362854 C-6.93395717 31.98691165 -6.93600983 28.02022814 -6.93548012 24.05349731 C-6.9366636 22.14604215 -6.94110581 20.23858621 -6.94881248 18.33114624 C-6.95856399 15.66860229 -6.95575383 13.00635939 -6.94970703 10.34381104 C-6.95532654 9.54998016 -6.96094604 8.75614929 -6.96673584 7.93826294 C-6.93166063 1.88839946 -6.15768049 0.00536333 0 0 Z M3.29321289 10.25396729 C3.29321289 16.19396729 3.29321289 22.13396729 3.29321289 28.25396729 C36.95321289 28.25396729 70.61321289 28.25396729 105.29321289 28.25396729 C105.29321289 22.31396729 105.29321289 16.37396729 105.29321289 10.25396729 C71.63321289 10.25396729 37.97321289 10.25396729 3.29321289 10.25396729 Z M3.29321289 38.25396729 C3.29321289 44.19396729 3.29321289 50.13396729 3.29321289 56.25396729 C10.55321289 56.25396729 17.81321289 56.25396729 25.29321289 56.25396729 C25.29321289 50.31396729 25.29321289 44.37396729 25.29321289 38.25396729 C18.03321289 38.25396729 10.77321289 38.25396729 3.29321289 38.25396729 Z M36.29321289 38.25396729 C36.29321289 44.19396729 36.29321289 50.13396729 36.29321289 56.25396729 C59.06321289 56.25396729 81.83321289 56.25396729 105.29321289 56.25396729 C105.29321289 50.31396729 105.29321289 44.37396729 105.29321289 38.25396729 C82.52321289 38.25396729 59.75321289 38.25396729 36.29321289 38.25396729 Z M3.29321289 66.25396729 C3.29321289 72.19396729 3.29321289 78.13396729 3.29321289 84.25396729 C10.55321289 84.25396729 17.81321289 84.25396729 25.29321289 84.25396729 C25.29321289 78.31396729 25.29321289 72.37396729 25.29321289 66.25396729 C18.03321289 66.25396729 10.77321289 66.25396729 3.29321289 66.25396729 Z M36.29321289 66.25396729 C36.29321289 72.19396729 36.29321289 78.13396729 36.29321289 84.25396729 C59.06321289 84.25396729 81.83321289 84.25396729 105.29321289 84.25396729 C105.29321289 78.31396729 105.29321289 72.37396729 105.29321289 66.25396729 C82.52321289 66.25396729 59.75321289 66.25396729 36.29321289 66.25396729 Z " fill="#1D78C0" transform="translate(20.706787109375,27.74603271484375)"/>
</svg>
